<?xml version="1.0" encoding="UTF-8" standalone="no"?>
<!DOCTYPE svg PUBLIC "-//W3C//DTD SVG 1.1//EN" "http://www.w3.org/Graphics/SVG/1.1/DTD/svg11.dtd">
<svg width="100%" height="100%" viewBox="0 0 338 442" version="1.1" xmlns="http://www.w3.org/2000/svg" xmlns:xlink="http://www.w3.org/1999/xlink" xml:space="preserve" xmlns:serif="http://www.serif.com/" style="fill-rule:evenodd;clip-rule:evenodd;stroke-linejoin:round;stroke-miterlimit:2;">
    <g id="Artboard1" transform="matrix(1.26245,0,0,1.64495,-99.6834,-16.3076)">
        <rect x="78.96" y="9.914" width="267.647" height="268.53" style="fill:none;"/>
        <clipPath id="_clip1">
            <rect x="78.96" y="9.914" width="267.647" height="268.53"/>
        </clipPath>
        <g clip-path="url(#_clip1)">
            <g id="surface1" transform="matrix(0.792112,0,0,0.607919,72.8163,4.4424)">
                <g transform="matrix(0.979849,0,0,1.55076,7.13334,6.20645e-15)">
                    <rect x="0" y="0" width="354" height="291" style="fill:rgb(254,254,254);"/>
                </g>
                <g transform="matrix(1.26345,0,0,1,-93.4231,14.9499)">
                    <rect x="86.328" y="0" width="36.77" height="24.105" style="fill:rgb(249,64,68);fill-rule:nonzero;"/>
                </g>
                <g transform="matrix(1.26345,0,0,1,-93.4231,14.9499)">
                    <rect x="123.094" y="0" width="36.77" height="24.105" style="fill:rgb(243,113,44);fill-rule:nonzero;"/>
                </g>
                <g transform="matrix(1.26345,0,0,1,-93.4231,14.9499)">
                    <rect x="159.863" y="0" width="36.77" height="24.105" style="fill:rgb(248,149,30);fill-rule:nonzero;"/>
                </g>
                <g transform="matrix(1.26345,0,0,1,-93.4231,14.9499)">
                    <rect x="196.633" y="0" width="36.77" height="24.105" style="fill:rgb(249,199,78);fill-rule:nonzero;"/>
                </g>
                <g transform="matrix(1.26345,0,0,1,-93.4231,14.9499)">
                    <rect x="233.398" y="0" width="36.77" height="24.105" style="fill:rgb(143,190,108);fill-rule:nonzero;"/>
                </g>
                <g transform="matrix(1.26345,0,0,1,-93.4231,14.9499)">
                    <rect x="270.168" y="0" width="36.77" height="24.105" style="fill:rgb(67,170,139);fill-rule:nonzero;"/>
                </g>
                <g transform="matrix(1.26345,0,0,1,-93.4231,14.9499)">
                    <rect x="306.938" y="0" width="36.77" height="24.105" style="fill:rgb(86,117,143);fill-rule:nonzero;"/>
                </g>
                <g transform="matrix(1.26345,0,0,1,-93.4231,14.9499)">
                    <rect x="86.328" y="29.102" width="36.77" height="24.105" style="fill:rgb(252,144,147);fill-rule:nonzero;"/>
                </g>
                <g transform="matrix(1.26345,0,0,1,-93.4231,14.9499)">
                    <rect x="123.094" y="29.102" width="36.77" height="24.105" style="fill:rgb(250,171,129);fill-rule:nonzero;"/>
                </g>
                <g transform="matrix(1.26345,0,0,1,-93.4231,14.9499)">
                    <rect x="159.863" y="29.102" width="36.77" height="24.105" style="fill:rgb(251,194,125);fill-rule:nonzero;"/>
                </g>
                <g transform="matrix(1.26345,0,0,1,-93.4231,14.9499)">
                    <rect x="196.633" y="29.102" width="36.77" height="24.105" style="fill:rgb(251,222,150);fill-rule:nonzero;"/>
                </g>
                <g transform="matrix(1.26345,0,0,1,-93.4231,14.9499)">
                    <rect x="233.398" y="29.102" width="36.77" height="24.105" style="fill:rgb(190,228,161);fill-rule:nonzero;"/>
                </g>
                <g transform="matrix(1.26345,0,0,1,-93.4231,14.9499)">
                    <rect x="270.168" y="29.102" width="36.77" height="24.105" style="fill:rgb(127,222,193);fill-rule:nonzero;"/>
                </g>
                <g transform="matrix(1.26345,0,0,1,-93.4231,14.9499)">
                    <rect x="306.938" y="29.102" width="36.77" height="24.105" style="fill:rgb(135,176,210);fill-rule:nonzero;"/>
                </g>
                <g transform="matrix(1.26345,0,0,1,-93.4231,14.9499)">
                    <rect x="86.328" y="58.203" width="36.77" height="24.105" style="fill:rgb(139,0,0);fill-rule:nonzero;"/>
                </g>
                <g transform="matrix(1.26345,0,0,1,-93.4231,14.9499)">
                    <rect x="123.094" y="58.203" width="36.77" height="24.105" style="fill:rgb(205,0,0);fill-rule:nonzero;"/>
                </g>
                <g transform="matrix(1.26345,0,0,1,-93.4231,14.9499)">
                    <rect x="159.863" y="58.203" width="36.77" height="24.105" style="fill:rgb(254,0,0);fill-rule:nonzero;"/>
                </g>
                <g transform="matrix(1.26345,0,0,1,-93.4231,14.9499)">
                    <rect x="196.633" y="58.203" width="36.77" height="24.105" style="fill:rgb(254,69,0);fill-rule:nonzero;"/>
                </g>
                <g transform="matrix(1.26345,0,0,1,-93.4231,14.9499)">
                    <rect x="233.398" y="58.203" width="36.77" height="24.105" style="fill:rgb(254,127,35);fill-rule:nonzero;"/>
                </g>
                <g transform="matrix(1.26345,0,0,1,-93.4231,14.9499)">
                    <rect x="270.168" y="58.203" width="36.77" height="24.105" style="fill:rgb(254,164,78);fill-rule:nonzero;"/>
                </g>
                <g transform="matrix(1.26345,0,0,1,-93.4231,14.9499)">
                    <rect x="306.938" y="58.203" width="36.77" height="24.105" style="fill:rgb(254,210,155);fill-rule:nonzero;"/>
                </g>
                <g transform="matrix(1.26345,0,0,1,-93.4231,14.9499)">
                    <rect x="86.328" y="87.301" width="36.77" height="24.105" style="fill:rgb(0,0,139);fill-rule:nonzero;"/>
                </g>
                <g transform="matrix(1.26345,0,0,1,-93.4231,14.9499)">
                    <rect x="123.094" y="87.301" width="36.77" height="24.105" style="fill:rgb(0,0,205);fill-rule:nonzero;"/>
                </g>
                <g transform="matrix(1.26345,0,0,1,-93.4231,14.9499)">
                    <rect x="159.863" y="87.301" width="36.77" height="24.105" style="fill:rgb(0,0,254);fill-rule:nonzero;"/>
                </g>
                <g transform="matrix(1.26345,0,0,1,-93.4231,14.9499)">
                    <rect x="196.633" y="87.301" width="36.77" height="24.105" style="fill:rgb(27,134,237);fill-rule:nonzero;"/>
                </g>
                <g transform="matrix(1.26345,0,0,1,-93.4231,14.9499)">
                    <rect x="233.398" y="87.301" width="36.77" height="24.105" style="fill:rgb(91,171,237);fill-rule:nonzero;"/>
                </g>
                <g transform="matrix(1.26345,0,0,1,-93.4231,14.9499)">
                    <rect x="270.168" y="87.301" width="36.77" height="24.105" style="fill:rgb(134,206,235);fill-rule:nonzero;"/>
                </g>
                <g transform="matrix(1.26345,0,0,1,-93.4231,14.9499)">
                    <rect x="306.938" y="87.301" width="36.77" height="24.105" style="fill:rgb(191,238,254);fill-rule:nonzero;"/>
                </g>
                <g transform="matrix(1.26345,0,0,1,-93.4231,14.9499)">
                    <rect x="86.328" y="116.402" width="28.598" height="24.105" style="fill:rgb(0,0,127);fill-rule:nonzero;"/>
                </g>
                <g transform="matrix(1.26345,0,0,1,-93.4231,14.9499)">
                    <rect x="114.926" y="116.402" width="28.598" height="24.105" style="fill:rgb(16,77,139);fill-rule:nonzero;"/>
                </g>
                <g transform="matrix(1.26345,0,0,1,-93.4231,14.9499)">
                    <rect x="143.523" y="116.402" width="28.598" height="24.105" style="fill:rgb(78,148,205);fill-rule:nonzero;"/>
                </g>
                <g transform="matrix(1.26345,0,0,1,-93.4231,14.9499)">
                    <rect x="172.121" y="116.402" width="28.598" height="24.105" style="fill:rgb(185,210,237);fill-rule:nonzero;"/>
                </g>
                <g transform="matrix(1.26345,0,0,1,-93.4231,14.9499)">
                    <rect x="200.719" y="116.402" width="28.598" height="24.105" style="fill:rgb(244,244,244);fill-rule:nonzero;"/>
                </g>
                <g transform="matrix(1.26345,0,0,1,-93.4231,14.9499)">
                    <rect x="229.316" y="116.402" width="28.598" height="24.105" style="fill:rgb(254,238,213);fill-rule:nonzero;"/>
                </g>
                <g transform="matrix(1.26345,0,0,1,-93.4231,14.9499)">
                    <rect x="257.914" y="116.402" width="28.598" height="24.105" style="fill:rgb(254,210,155);fill-rule:nonzero;"/>
                </g>
                <g transform="matrix(1.26345,0,0,1,-93.4231,14.9499)">
                    <rect x="286.512" y="116.402" width="28.598" height="24.105" style="fill:rgb(254,164,78);fill-rule:nonzero;"/>
                </g>
                <g transform="matrix(1.26345,0,0,1,-93.4231,14.9499)">
                    <rect x="315.105" y="116.402" width="28.598" height="24.105" style="fill:rgb(254,69,0);fill-rule:nonzero;"/>
                </g>
                <g transform="matrix(1.26345,0,0,1,-93.4231,14.9499)">
                    <rect x="86.328" y="145.5" width="42.895" height="24.105" style="fill:rgb(25,25,112);fill-rule:nonzero;"/>
                </g>
                <g transform="matrix(1.26345,0,0,1,-93.4231,14.9499)">
                    <rect x="129.223" y="145.5" width="42.895" height="24.105" style="fill:rgb(70,60,139);fill-rule:nonzero;"/>
                </g>
                <g transform="matrix(1.26345,0,0,1,-93.4231,14.9499)">
                    <rect x="172.121" y="145.5" width="42.895" height="24.105" style="fill:rgb(136,104,205);fill-rule:nonzero;"/>
                </g>
                <g transform="matrix(1.26345,0,0,1,-93.4231,14.9499)">
                    <rect x="215.016" y="145.5" width="42.895" height="24.105" style="fill:rgb(205,180,205);fill-rule:nonzero;"/>
                </g>
                <g transform="matrix(1.26345,0,0,1,-93.4231,14.9499)">
                    <rect x="257.914" y="145.5" width="42.895" height="24.105" style="fill:rgb(254,228,224);fill-rule:nonzero;"/>
                </g>
                <g transform="matrix(1.26345,0,0,1,-93.4231,14.9499)">
                    <rect x="300.809" y="145.5" width="42.895" height="24.105" style="fill:rgb(250,239,229);fill-rule:nonzero;"/>
                </g>
                <g transform="matrix(1.26345,0,0,1,-93.4231,14.9499)">
                    <rect x="86.328" y="174.602" width="51.477" height="24.105" style="fill:rgb(0,139,69);fill-rule:nonzero;"/>
                </g>
                <g transform="matrix(1.26345,0,0,1,-93.4231,14.9499)">
                    <rect x="137.801" y="174.602" width="51.477" height="24.105" style="fill:rgb(60,178,112);fill-rule:nonzero;"/>
                </g>
                <g transform="matrix(1.26345,0,0,1,-93.4231,14.9499)">
                    <rect x="189.277" y="174.602" width="51.477" height="24.105" style="fill:rgb(124,205,124);fill-rule:nonzero;"/>
                </g>
                <g transform="matrix(1.26345,0,0,1,-93.4231,14.9499)">
                    <rect x="240.754" y="174.602" width="51.477" height="24.105" style="fill:rgb(155,205,155);fill-rule:nonzero;"/>
                </g>
                <g transform="matrix(1.26345,0,0,1,-93.4231,14.9499)">
                    <rect x="292.23" y="174.602" width="51.477" height="24.105" style="fill:rgb(193,205,193);fill-rule:nonzero;"/>
                </g>
                <g transform="matrix(1.26345,0,0,1,-93.4231,14.9499)">
                    <rect x="86.328" y="203.703" width="51.477" height="24.105" style="fill:rgb(254,98,70);fill-rule:nonzero;"/>
                </g>
                <g transform="matrix(1.26345,0,0,1,-93.4231,14.9499)">
                    <rect x="137.801" y="203.703" width="51.477" height="24.105" style="fill:rgb(254,127,79);fill-rule:nonzero;"/>
                </g>
                <g transform="matrix(1.26345,0,0,1,-93.4231,14.9499)">
                    <rect x="189.277" y="203.703" width="51.477" height="24.105" style="fill:rgb(254,159,121);fill-rule:nonzero;"/>
                </g>
                <g transform="matrix(1.26345,0,0,1,-93.4231,14.9499)">
                    <rect x="240.754" y="203.703" width="51.477" height="24.105" style="fill:rgb(254,217,185);fill-rule:nonzero;"/>
                </g>
                <g transform="matrix(1.26345,0,0,1,-93.4231,14.9499)">
                    <rect x="292.23" y="203.703" width="51.477" height="24.105" style="fill:rgb(254,235,205);fill-rule:nonzero;"/>
                </g>
                <g transform="matrix(1.26345,0,0,1,-93.4231,14.9499)">
                    <rect x="86.328" y="232.801" width="42.895" height="24.105" style="fill:rgb(217,246,165);fill-rule:nonzero;"/>
                </g>
                <g transform="matrix(1.26345,0,0,1,-93.4231,14.9499)">
                    <rect x="129.223" y="232.801" width="42.895" height="24.105" style="fill:rgb(254,194,0);fill-rule:nonzero;"/>
                </g>
                <g transform="matrix(1.26345,0,0,1,-93.4231,14.9499)">
                    <rect x="172.121" y="232.801" width="42.895" height="24.105" style="fill:rgb(254,86,51);fill-rule:nonzero;"/>
                </g>
                <g transform="matrix(1.26345,0,0,1,-93.4231,14.9499)">
                    <rect x="215.016" y="232.801" width="42.895" height="24.105" style="fill:rgb(199,0,56);fill-rule:nonzero;"/>
                </g>
                <g transform="matrix(1.26345,0,0,1,-93.4231,14.9499)">
                    <rect x="257.914" y="232.801" width="42.895" height="24.105" style="fill:rgb(143,11,62);fill-rule:nonzero;"/>
                </g>
                <g transform="matrix(1.26345,0,0,1,-93.4231,14.9499)">
                    <rect x="300.809" y="232.801" width="42.895" height="24.105" style="fill:rgb(88,24,69);fill-rule:nonzero;"/>
                </g>
                <g transform="matrix(1.2636,0,0,1,-93.6032,276.357)">
                    <rect x="86.328" y="0" width="36.77" height="24.105" style="fill:rgb(149,188,220);"/>
                </g>
                <g transform="matrix(1.2636,0,0,1,-93.6032,276.357)">
                    <rect x="123.094" y="0" width="36.77" height="24.105" style="fill:rgb(193,208,229);"/>
                </g>
                <g transform="matrix(1.2636,0,0,1,-93.6032,276.357)">
                    <rect x="159.863" y="0" width="36.77" height="24.105" style="fill:rgb(254,139,90);"/>
                </g>
                <g transform="matrix(1.2636,0,0,1,-93.6032,276.357)">
                    <rect x="196.633" y="0" width="36.77" height="24.105" style="fill:rgb(251,76,31);"/>
                </g>
                <g transform="matrix(1.2636,0,0,1,-93.6032,276.357)">
                    <rect x="233.398" y="0" width="36.77" height="24.105" style="fill:rgb(251,198,207);"/>
                </g>
                <g transform="matrix(1.2636,0,0,1,-93.6032,276.357)">
                    <rect x="270.168" y="0" width="36.77" height="24.105" style="fill:rgb(216,186,249);"/>
                </g>
                <g transform="matrix(1.2636,0,0,1,-93.6032,276.357)">
                    <rect x="306.938" y="0" width="36.77" height="24.105" style="fill:rgb(251,200,85);"/>
                </g>
                <g transform="matrix(1.2636,0,0,1,-93.6032,276.357)">
                    <rect x="86.328" y="29.102" width="36.77" height="24.105" style="fill:rgb(139,0,0);"/>
                </g>
                <g transform="matrix(1.2636,0,0,1,-93.6032,276.357)">
                    <rect x="123.094" y="29.102" width="36.77" height="24.105" style="fill:rgb(205,38,38);"/>
                </g>
                <g transform="matrix(1.2636,0,0,1,-93.6032,276.357)">
                    <rect x="159.863" y="29.102" width="36.77" height="24.105" style="fill:rgb(254,222,172);"/>
                </g>
                <g transform="matrix(1.2636,0,0,1,-93.6032,276.357)">
                    <rect x="196.633" y="29.102" width="36.77" height="24.105" style="fill:rgb(244,163,96);"/>
                </g>
                <g transform="matrix(1.2636,0,0,1,-93.6032,276.357)">
                    <rect x="233.398" y="29.102" width="36.77" height="24.105" style="fill:rgb(139,69,0);"/>
                </g>
                <g transform="matrix(1.2636,0,0,1,-93.6032,276.357)">
                    <rect x="270.168" y="29.102" width="36.77" height="24.105" style="fill:rgb(176,223,229);"/>
                </g>
                <g transform="matrix(1.2636,0,0,1,-93.6032,276.357)">
                    <rect x="306.938" y="29.102" width="36.77" height="24.105" style="fill:rgb(16,77,139);"/>
                </g>
                <g transform="matrix(1.2636,0,0,1,-93.6032,276.357)">
                    <rect x="86.328" y="58.203" width="51.477" height="24.105" style="fill:rgb(212,197,226);"/>
                </g>
                <g transform="matrix(1.2636,0,0,1,-93.6032,276.357)">
                    <rect x="137.801" y="58.203" width="51.477" height="24.105" style="fill:rgb(200,214,248);"/>
                </g>
                <g transform="matrix(1.2636,0,0,1,-93.6032,276.357)">
                    <rect x="189.277" y="58.203" width="51.477" height="24.105" style="fill:rgb(166,226,227);"/>
                </g>
                <g transform="matrix(1.2636,0,0,1,-93.6032,276.357)">
                    <rect x="240.754" y="58.203" width="51.477" height="24.105" style="fill:rgb(127,207,169);"/>
                </g>
                <g transform="matrix(1.2636,0,0,1,-93.6032,276.357)">
                    <rect x="292.23" y="58.203" width="51.477" height="24.105" style="fill:rgb(76,102,98);"/>
                </g>
                <g transform="matrix(1.2636,0,0,1,-93.6032,276.357)">
                    <rect x="86.328" y="87.301" width="36.77" height="24.105" style="fill:rgb(234,146,113);"/>
                </g>
                <g transform="matrix(1.2636,0,0,1,-93.6032,276.357)">
                    <rect x="123.094" y="87.301" width="36.77" height="24.105" style="fill:rgb(234,193,163);"/>
                </g>
                <g transform="matrix(1.2636,0,0,1,-93.6032,276.357)">
                    <rect x="159.863" y="87.301" width="36.77" height="24.105" style="fill:rgb(121,140,149);"/>
                </g>
                <g transform="matrix(1.2636,0,0,1,-93.6032,276.357)">
                    <rect x="196.633" y="87.301" width="36.77" height="24.105" style="fill:rgb(156,127,132);"/>
                </g>
                <g transform="matrix(1.2636,0,0,1,-93.6032,276.357)">
                    <rect x="233.398" y="87.301" width="36.77" height="24.105" style="fill:rgb(163,155,166);"/>
                </g>
                <g transform="matrix(1.2636,0,0,1,-93.6032,276.357)">
                    <rect x="270.168" y="87.301" width="36.77" height="24.105" style="fill:rgb(62,81,73);"/>
                </g>
                <g transform="matrix(1.2636,0,0,1,-93.6032,276.357)">
                    <rect x="306.938" y="87.301" width="36.77" height="24.105" style="fill:rgb(15,23,30);"/>
                </g>
                <g transform="matrix(1.2636,0,0,1,-93.6032,276.357)">
                    <rect x="86.328" y="116.402" width="51.477" height="24.105" style="fill:rgb(245,188,96);"/>
                </g>
                <g transform="matrix(1.2636,0,0,1,-93.6032,276.357)">
                    <rect x="137.801" y="116.402" width="51.477" height="24.105" style="fill:rgb(246,236,226);"/>
                </g>
                <g transform="matrix(1.2636,0,0,1,-93.6032,276.357)">
                    <rect x="189.277" y="116.402" width="51.477" height="24.105" style="fill:rgb(244,201,194);"/>
                </g>
                <g transform="matrix(1.2636,0,0,1,-93.6032,276.357)">
                    <rect x="240.754" y="116.402" width="51.477" height="24.105" style="fill:rgb(132,164,156);"/>
                </g>
                <g transform="matrix(1.2636,0,0,1,-93.6032,276.357)">
                    <rect x="292.23" y="116.402" width="51.477" height="24.105" style="fill:rgb(242,132,129);"/>
                </g>
                <g transform="matrix(1.2636,0,0,1,-93.6032,276.357)">
                    <rect x="86.328" y="145.5" width="64.344" height="24.105" style="fill:rgb(249,56,60);"/>
                </g>
                <g transform="matrix(1.2636,0,0,1,-93.6032,276.357)">
                    <rect x="150.672" y="145.5" width="64.344" height="24.105" style="fill:rgb(254,166,60);"/>
                </g>
                <g transform="matrix(1.2636,0,0,1,-93.6032,276.357)">
                    <rect x="215.016" y="145.5" width="64.344" height="24.105" style="fill:rgb(172,229,125);"/>
                </g>
                <g transform="matrix(1.2636,0,0,1,-93.6032,276.357)">
                    <rect x="279.359" y="145.5" width="64.344" height="24.105" style="fill:rgb(148,193,232);"/>
                </g>
            </g>
        </g>
    </g>
</svg>
